<?xml version="1.0" encoding="utf-8"?>
<!-- Generator: Adobe Illustrator 23.0.6, SVG Export Plug-In . SVG Version: 6.00 Build 0)  -->
<svg version="1.1" id="Layer_1" xmlns="http://www.w3.org/2000/svg" xmlns:xlink="http://www.w3.org/1999/xlink" x="0px" y="0px"
	 width="190px" height="33.1px" viewBox="0 0 190 33.1" style="enable-background:new 0 0 190 33.1;" xml:space="preserve">
<style type="text/css">
	.st0{fill:#3D3D3D;}
	.st1{fill-rule:evenodd;clip-rule:evenodd;fill:#EF4650;}
</style>
<g>
	<g>
		<path class="st0" d="M43.6,25.3L42,19.8h-8.4l-1.7,5.5h-5.3l8.2-23.2h6l8.2,23.2H43.6z M40.8,15.7c-1.6-5-2.4-7.8-2.6-8.5
			c-0.2-0.7-0.3-1.2-0.4-1.6c-0.3,1.4-1.3,4.7-3,10H40.8z"/>
		<path class="st0" d="M59.6,25.7c-2.1,0-3.7-0.8-4.9-2.3h-0.3c0.2,1.5,0.3,2.3,0.3,2.6v7.2h-4.8V7.6h3.9l0.7,2.3h0.2
			c1.1-1.8,2.8-2.6,5-2.6c2.1,0,3.7,0.8,4.9,2.4c1.2,1.6,1.8,3.9,1.8,6.7c0,1.9-0.3,3.5-0.8,4.9c-0.6,1.4-1.3,2.5-2.4,3.2
			C62.1,25.3,60.9,25.7,59.6,25.7z M58.1,11.2c-1.2,0-2.1,0.4-2.6,1.1c-0.5,0.7-0.8,1.9-0.9,3.6v0.5c0,1.9,0.3,3.3,0.8,4.1
			c0.6,0.8,1.5,1.2,2.7,1.2c2.2,0,3.2-1.8,3.2-5.3c0-1.7-0.3-3-0.8-3.9C60.1,11.6,59.3,11.2,58.1,11.2z"/>
		<path class="st0" d="M78.4,25.7c-2.1,0-3.7-0.8-4.9-2.3h-0.3c0.2,1.5,0.3,2.3,0.3,2.6v7.2h-4.8V7.6h3.9l0.7,2.3h0.2
			c1.1-1.8,2.8-2.6,5-2.6c2.1,0,3.7,0.8,4.9,2.4c1.2,1.6,1.8,3.9,1.8,6.7c0,1.9-0.3,3.5-0.8,4.9c-0.6,1.4-1.3,2.5-2.4,3.2
			C81,25.3,79.8,25.7,78.4,25.7z M77,11.2c-1.2,0-2.1,0.4-2.6,1.1c-0.5,0.7-0.8,1.9-0.9,3.6v0.5c0,1.9,0.3,3.3,0.8,4.1
			c0.6,0.8,1.5,1.2,2.7,1.2c2.2,0,3.2-1.8,3.2-5.3c0-1.7-0.3-3-0.8-3.9C79,11.6,78.2,11.2,77,11.2z"/>
		<path class="st0" d="M95.1,21.8c0.8,0,1.9-0.2,3-0.6v3.6c-1.2,0.5-2.7,0.8-4.4,0.8c-1.9,0-3.3-0.5-4.2-1.5c-0.9-1-1.3-2.4-1.3-4.4
			v-8.5h-2.3v-2l2.7-1.6l1.4-3.7H93v3.8h5v3.6h-5v8.5c0,0.7,0.2,1.2,0.6,1.5C93.9,21.6,94.4,21.8,95.1,21.8z"/>
		<path class="st0" d="M108.1,25.7c-2.8,0-5.1-0.8-6.7-2.4c-1.6-1.6-2.4-3.8-2.4-6.7c0-3,0.7-5.3,2.2-6.9c1.5-1.6,3.5-2.4,6.1-2.4
			c2.5,0,4.4,0.7,5.8,2.1c1.4,1.4,2.1,3.4,2.1,5.9v2.3h-11.4c0.1,1.4,0.5,2.4,1.2,3.2c0.8,0.8,1.8,1.2,3.2,1.2c1.1,0,2.1-0.1,3-0.3
			c0.9-0.2,1.9-0.6,3-1.1v3.7c-0.8,0.4-1.7,0.7-2.7,0.9C110.6,25.5,109.4,25.7,108.1,25.7z M107.4,10.7c-1,0-1.8,0.3-2.4,1
			c-0.6,0.6-0.9,1.6-1,2.8h6.8c0-1.2-0.3-2.1-0.9-2.8C109.2,11.1,108.4,10.7,107.4,10.7z"/>
		<path class="st0" d="M133.9,25.3h-4.8V15c0-1.3-0.2-2.2-0.7-2.9c-0.5-0.6-1.2-1-2.2-1c-1.4,0-2.3,0.5-2.9,1.4
			c-0.6,0.9-0.9,2.4-0.9,4.5v8.3h-4.8V7.6h3.7l0.6,2.3h0.3c0.5-0.9,1.3-1.5,2.2-1.9c0.9-0.4,2-0.7,3.2-0.7c2.1,0,3.6,0.6,4.7,1.7
			c1.1,1.1,1.6,2.7,1.6,4.8V25.3z"/>
		<path class="st0" d="M144.7,21.8c0.8,0,1.9-0.2,3-0.6v3.6c-1.2,0.5-2.7,0.8-4.4,0.8c-1.9,0-3.3-0.5-4.2-1.5
			c-0.9-1-1.3-2.4-1.3-4.4v-8.5h-2.3v-2l2.7-1.6l1.4-3.7h3.1v3.8h5v3.6h-5v8.5c0,0.7,0.2,1.2,0.6,1.5
			C143.6,21.6,144.1,21.8,144.7,21.8z"/>
		<path class="st0" d="M149.5,3.1c0-1.6,0.9-2.4,2.6-2.4c1.8,0,2.6,0.8,2.6,2.4c0,0.7-0.2,1.3-0.7,1.7c-0.4,0.4-1.1,0.6-2,0.6
			C150.4,5.4,149.5,4.7,149.5,3.1z M154.5,25.3h-4.8V7.6h4.8V25.3z"/>
		<path class="st0" d="M162.2,25.3l-6.7-17.7h5l3.4,10.1c0.4,1.3,0.6,2.5,0.7,3.6h0.1c0.1-1,0.3-2.2,0.7-3.6l3.4-10.1h5l-6.7,17.7
			H162.2z"/>
		<path class="st0" d="M182.8,25.7c-2.8,0-5.1-0.8-6.7-2.4c-1.6-1.6-2.4-3.8-2.4-6.7c0-3,0.7-5.3,2.2-6.9c1.5-1.6,3.5-2.4,6.1-2.4
			c2.5,0,4.4,0.7,5.8,2.1c1.4,1.4,2.1,3.4,2.1,5.9v2.3h-11.4c0.1,1.4,0.5,2.4,1.2,3.2c0.8,0.8,1.8,1.2,3.2,1.2c1.1,0,2.1-0.1,3-0.3
			c0.9-0.2,1.9-0.6,3-1.1v3.7c-0.8,0.4-1.7,0.7-2.7,0.9C185.3,25.5,184.2,25.7,182.8,25.7z M182.1,10.7c-1,0-1.8,0.3-2.4,1
			c-0.6,0.6-0.9,1.6-1,2.8h6.8c0-1.2-0.3-2.1-0.9-2.8C183.9,11.1,183.1,10.7,182.1,10.7z"/>
	</g>
</g>
<path class="st1" d="M22.9,5.4c0.7,1.6,0.8,3.2,0.4,4.7l-5.4,15L3.6,19.8c-1.4-0.6-2.4-1.7-3.1-3.2c-0.7-1.6-0.8-3.3-0.1-5.2
	c0.7-1.8,1.8-3.1,3.4-3.9c1.5-0.8,3.1-1,4.7-0.6c5.1,1.4,7.2,4,6.1,7.6c-1.7-2.4-3.7-3.8-6-4.3C6.5,9.6,5,10.3,4.2,12.5
	c-0.7,2.1-0.3,3.6,1.3,4.3l10.2,3.8l4.1-11.4c0.3-1,0.1-1.9-0.4-2.9c-0.6-1.1-1.5-1.8-2.6-2.2c-1.3-0.5-2.5-0.5-3.6,0
	c-1,0.4-1.6,1-1.8,1.7L7.9,4.6C8.6,2.8,10,1.5,12,0.7c1.9-0.9,3.9-0.9,6-0.1c1.9,0.7,3.4,2.1,4.6,4.2C22.6,4.9,22.8,5.1,22.9,5.4z"
	/>
</svg>
